<svg xmlns="http://www.w3.org/2000/svg" version="1.0" viewBox="0 0 500 300"><defs><linearGradient id="a"><stop offset="0" stop-color="#fff"/><stop offset=".838" stop-color="#fff"/><stop offset="1"/></linearGradient></defs><path fill="#ececec" fill-rule="evenodd" stroke="#000" stroke-linecap="square" stroke-linejoin="bevel" stroke-width="2" d="m336.23 67.185 60.148 40.968M268.986 56.63l-70.003 19.8M426.026 167.435l-5.563 19.433M294.466 194.314l100.105-43.759"/><path fill="#fff" fill-rule="evenodd" stroke="#000" stroke-linecap="square" stroke-linejoin="bevel" stroke-width="2.0008956600000003" d="M77.315 88.643a35.34 35.34 0 1 1-70.68 0 35.34 35.34 0 1 1 70.68 0z"/><path d="M48.692 95.675h-13.58l-3.721 10.583h-4.785l12.566-35.23h5.799l12.372 35.23h-5.026l-3.625-10.583zm-1.257-3.77-5.412-16.044-5.8 16.044h11.212z" font-family="FreeSans" font-size="12" font-weight="400"/><path fill="#fff" fill-rule="evenodd" stroke="#000" stroke-linecap="square" stroke-linejoin="bevel" stroke-width="2.0008956600000003" d="M469.248 132.348a35.34 35.34 0 1 1-70.68 0 35.34 35.34 0 1 1 70.68 0z"/><path d="M425.766 133.918V146h20.78v3.963H421.27v-35.23h24.405v3.962h-19.91v11.26h19.184v3.963h-19.184z" font-family="FreeSans" font-size="12" font-weight="400"/><path fill="#fff" fill-rule="evenodd" stroke="#000" stroke-linecap="square" stroke-linejoin="bevel" stroke-width="2.0008956600000003" d="M297.421 210.837a35.34 35.34 0 1 1-70.68 0 35.34 35.34 0 1 1 70.68 0z"/><path d="M250.06 228.452v-35.23h13.58c5.25 0 9.15 2.126 11.695 6.38l1.063 2.077c1.063 2.61 1.594 5.654 1.594 9.134 0 6.733-1.868 11.63-5.606 14.69-2.351 1.966-5.267 2.949-8.747 2.949h-13.58zm4.495-3.963h8.312c5.606 0 9.005-2.916 10.196-8.747.29-1.45.435-3.078.435-4.882 0-7.924-2.706-12.402-8.118-13.434a12.779 12.779 0 0 0-2.513-.242h-8.312v27.305z" font-family="FreeSans" font-size="12" font-weight="400"/><path fill="none" stroke="#000" stroke-linecap="square" stroke-linejoin="bevel" stroke-width="2.101" d="M84.116 60.437h54.759" transform="matrix(.90631 0 0 1 2.1 28.352)"/><path fill-rule="evenodd" d="m116.621 94.676 15.94-5.94-15.991-5.802c2.566 3.455 2.572 8.198.051 11.742z" font-size="12"/><path fill="#fff" fill-rule="evenodd" stroke="#000" stroke-linecap="square" stroke-linejoin="bevel" stroke-width="2.0008956600000003" d="M204.259 88.643a35.34 35.34 0 1 1-70.68 0 35.34 35.34 0 1 1 70.68 0z"/><path d="M155.774 106.258v-35.23h14.305c3.318 0 5.863.821 7.635 2.464 1.869 1.676 2.803 3.834 2.803 6.476 0 3.609-1.627 6.17-4.881 7.684 3.383 1.321 5.413 3.27 6.09 5.848.193.645.305 1.337.337 2.078v.628c0 2.835-.902 5.204-2.706 7.104-1.836 1.965-4.397 2.948-7.684 2.948h-15.899zm4.494-20.056h8.699c2.32 0 4.028-.419 5.123-1.256 1.288-.998 1.932-2.448 1.932-4.349 0-1.9-.644-3.35-1.932-4.35-1.095-.837-2.803-1.256-5.123-1.256h-8.699v11.211zm17.301 10.053c0-2.804-1.143-4.656-3.43-5.557-.838-.355-1.805-.533-2.901-.533h-10.97v12.13h10.97c2.094 0 3.657-.563 4.688-1.691 1.095-1.16 1.643-2.61 1.643-4.35z" font-family="FreeSans" font-size="12" font-weight="400"/><path fill-rule="evenodd" d="m260.599 65.225 13.308-10.596-17.002-.55c3.511 2.488 4.99 6.994 3.694 11.146z" font-size="12"/><path fill="#fff" fill-rule="evenodd" stroke="#000" stroke-linecap="square" stroke-linejoin="bevel" stroke-width="2.0008956600000003" d="M344.09 43.96a35.34 35.34 0 1 1-70.68 0 35.34 35.34 0 1 1 70.68 0z"/><path d="M323.223 37h-4.59c-.484-2.416-1.337-4.188-2.561-5.316-1.74-1.418-4.06-2.159-6.96-2.223-4.123 0-7.168 1.853-9.133 5.557-1.29 2.417-1.934 5.43-1.934 9.038 0 5.476 1.53 9.487 4.591 12.033 1.902 1.579 4.19 2.368 6.863 2.368 3.512 0 6.09-1.24 7.732-3.72a4.24 4.24 0 0 0 .484-.823c.709-1.353 1.24-3.173 1.594-5.46h4.64c-1.063 9.31-5.895 13.966-14.497 13.966-4.544 0-8.137-1.37-10.778-4.109-3.415-3.51-5.122-8.246-5.122-14.206 0-5.897 1.643-10.633 4.928-14.209 2.642-2.932 6.364-4.398 11.165-4.398 7.667 0 12.193 3.834 13.578 11.502z" font-family="FreeSans" font-size="12" font-weight="400"/><path fill="#fff" fill-rule="evenodd" stroke="#000" stroke-linecap="square" stroke-linejoin="bevel" stroke-width="2.0008956600000003" d="M173.933 229.29a35.34 35.34 0 1 1-70.68 0 35.34 35.34 0 1 1 70.68 0z"/><path d="M154.662 228.032v18.8h-2.853l-1.11-4.688c-3.35 3.738-7.362 5.606-12.035 5.606-4.928 0-8.907-1.836-11.935-5.51-2.803-3.35-4.205-7.635-4.205-12.854 0-5.67 1.643-10.277 4.929-13.822.451-.483.935-.933 1.45-1.352 2.738-2.256 6.25-3.384 10.536-3.384 5.766 0 9.954 1.902 12.564 5.704 1.063 1.578 1.789 3.43 2.175 5.557h-4.591c-.677-3.157-2.545-5.316-5.606-6.476-1.353-.548-2.883-.822-4.591-.822-4.253 0-7.523 1.676-9.81 5.026-1.708 2.513-2.562 5.622-2.562 9.327 0 4.06.983 7.442 2.948 10.148.258.323.515.629.773.919 2.32 2.32 5.285 3.512 8.893 3.576 3.672 0 6.572-1.289 8.698-3.867 1.58-1.933 2.369-4.252 2.369-6.958v-.967h-10.73v-3.963h14.693z" font-family="FreeSans" font-size="12" font-weight="400"/><path fill="#fff" fill-rule="evenodd" stroke="#000" stroke-linecap="square" stroke-linejoin="bevel" stroke-width="2.0008956600000003" d="M442.633 230.704a35.34 35.34 0 1 1-70.68 0 35.34 35.34 0 1 1 70.68 0z"/><path d="M399.973 232.274v16.045h-4.496v-35.23h23.633v3.962h-19.137v11.26h16.817v3.963h-16.817z" font-family="FreeSans" font-size="12" font-weight="400"/><path fill-rule="evenodd" d="m387.038 108.554 16.222 5.12-9.04-14.41c-.103 4.303-3.015 8.046-7.182 9.29zM388.829 159.4l12.38-11.667-16.99.868c3.707 2.187 5.555 6.554 4.61 10.8zM416.712 179.283l.721 16.996 10.461-13.414c-4.079 1.372-8.59-.089-11.182-3.582zM211.423 225.178l14.826-8.34-16.697-3.252c3.07 3.015 3.811 7.7 1.87 11.592zM226.812 172.352l14.616 8.704-5.495-16.1c-1.086 4.165-4.78 7.14-9.121 7.396z" font-size="12"/><path fill="#ececec" fill-rule="evenodd" stroke="#000" stroke-linecap="square" stroke-linejoin="bevel" stroke-width="2" d="m189.681 118.45 47.995 57.806M203.647 99.889l185.262 29.698M174.655 223.986l42.073-5.657"/><path fill-rule="evenodd" d="m381.52 134.663 16.485-4.2-15.278-7.48c2.18 3.71 1.679 8.426-1.207 11.68z" font-size="12"/></svg>